<svg width="104" height="101" viewBox="0 0 104 101" fill="none" xmlns="http://www.w3.org/2000/svg">
<path d="M43.0087 46C48.5362 46.0003 53.9264 47.6724 58.4305 50.7841C62.9346 53.8958 66.3289 58.2925 68.142 63.3636L68.467 64.3441L68.6577 64.9501H78.7543C81.7882 64.951 84.7074 66.0757 86.9169 68.0947C89.1263 70.1138 90.4597 72.8752 90.645 75.816L90.6667 76.5188V80.7272C90.6655 82.5747 89.9494 84.3543 88.6603 85.713C87.3712 87.0717 85.6033 87.9103 83.7073 88.0623L83.0877 88.0833H76.0417L77.086 90.541C77.808 92.244 77.8467 94.1479 77.1946 95.8773C76.5425 97.6067 75.2468 99.0361 73.563 99.8835L72.9693 100.153C72.2821 100.425 71.5584 100.601 70.82 100.675L70.079 100.708H62.3353C61.0116 100.708 59.7112 100.371 58.5633 99.7304C57.4153 99.0903 56.4599 98.1696 55.792 97.0597L55.48 96.4832L53.1443 91.673L53.3783 91.6436C47.3117 92.4263 41.1713 92.5189 35.0873 91.9213L32.9337 91.6815L30.6153 96.4621C30.0028 97.7264 29.0326 98.7954 27.818 99.5443C26.6034 100.293 25.1944 100.691 23.7557 100.691H15.9383C14.6934 100.691 13.4677 100.393 12.3695 99.8233C11.2713 99.2538 10.3344 98.4305 9.64142 97.4261C8.94847 96.4216 8.52082 95.2669 8.39623 94.064C8.27163 92.861 8.45392 91.6467 8.92701 90.5284L10.8033 86.1096C8.72571 84.896 7.00709 83.1806 5.81484 81.1303C4.6226 79.0801 3.99736 76.765 4.00001 74.4105C4.00109 73.6485 4.28598 72.9126 4.80209 72.3387C5.3182 71.7647 6.03068 71.3915 6.80801 71.2879L7.25001 71.2584H15.3967L17.5503 64.3441C19.2061 59.0388 22.575 54.3913 27.1593 51.088C31.7436 47.7847 37.3003 46.0009 43.0087 46ZM72.3757 86.7914C69.0303 88.096 65.6272 89.1691 62.1663 90.0107L59.7873 90.5536L61.356 93.794C61.461 94.0124 61.6399 94.1892 61.863 94.2948L62.0927 94.3706L62.3353 94.4H70.079C70.2322 94.3999 70.3836 94.3683 70.5232 94.3072C70.6629 94.246 70.7876 94.1569 70.8891 94.0455C70.9907 93.9342 71.0668 93.8032 71.1124 93.6612C71.158 93.5192 71.1721 93.3694 71.1537 93.2217L71.08 92.9482L69.0087 88.0833H68.8223L70.6033 87.4605L72.3757 86.7914ZM13.6503 86.7914L15.3403 87.431L17.0217 88.0244L14.933 92.9313C14.8653 93.0914 14.8393 93.2652 14.8573 93.4373C14.8753 93.6095 14.9367 93.7746 15.0361 93.9182C15.1355 94.0618 15.2699 94.1793 15.4273 94.2605C15.5846 94.3416 15.7602 94.3837 15.9383 94.3832H23.7557L24.0027 94.3537C24.1624 94.318 24.3116 94.2476 24.4392 94.1477C24.5668 94.0478 24.6695 93.9212 24.7393 93.7772L26.295 90.5662L26.4857 90.6083C22.1024 89.6979 17.808 88.4223 13.6503 86.7956M43.0087 52.3125C38.8567 52.3137 34.807 53.5631 31.4155 55.8892C28.0241 58.2153 25.4573 61.504 24.0677 65.3036L23.773 66.1747L18.8503 81.956L19.5567 82.2043C34.1595 87.0722 49.984 87.2683 64.71 82.764L66.4693 82.2043L67.1713 81.956L62.2487 66.1747C61.0901 62.4646 58.8204 59.1734 55.7289 56.7204C52.6374 54.2675 48.864 52.7638 44.8893 52.4009L43.9533 52.3335L43.0087 52.3125ZM12.775 79.6667L13.4293 77.5625L11.2323 77.5709L11.3407 77.7897C11.7162 78.4911 12.1972 79.1168 12.775 79.6667ZM70.625 71.2584L73.901 81.7708L83.0877 81.775C83.3312 81.7749 83.5675 81.695 83.7585 81.5485C83.9496 81.4019 84.0842 81.197 84.1407 80.967L84.171 80.723V76.5188C84.1705 75.2173 83.6732 73.9621 82.7752 72.9959C81.8772 72.0297 80.6422 71.4212 79.309 71.2879L78.7543 71.2626L70.625 71.2584Z" fill="black"/>
</svg>
